<svg xmlns="http://www.w3.org/2000/svg" width="68.004" height="68" viewBox="0 0 68.004 68"><defs><style>.a{fill:#5565ba;}</style></defs><g transform="translate(0 -0.013)"><path class="a" d="M65.945,61.621H63.6c0-.022,0-.044,0-.066V57.078a2.061,2.061,0,0,0-2.059-2.059H61.4c0-.022,0-.044,0-.066V50.477a2.061,2.061,0,0,0-2.059-2.059H57V30.607h3.333l.558.483a2.1,2.1,0,0,0,2.957-.211l1.441-1.663a2.1,2.1,0,0,0-.211-2.957L35.375.522a2.107,2.107,0,0,0-2.746,0L8.224,21.669a1,1,0,1,0,1.3,1.506l24.4-21.147a.1.1,0,0,1,.136,0l29.7,25.737a.1.1,0,0,1,.01.147l-1.441,1.663a.1.1,0,0,1-.147.01L35.375,6.346a2.107,2.107,0,0,0-2.746,0L3.606,31.494a.1.1,0,0,1-.147-.011L2.018,29.82a.1.1,0,0,1,.01-.147L6.51,25.79a1,1,0,1,0-1.3-1.506L.723,28.168a2.1,2.1,0,0,0-.211,2.957l1.441,1.663a2.083,2.083,0,0,0,1.435.718q.077.006.152.006A2.081,2.081,0,0,0,4.91,33l2.761-2.392H11V57.22H10.86A2.061,2.061,0,0,0,8.8,59.278V61.62H2.059A2.061,2.061,0,0,0,0,63.679v2.276a2.061,2.061,0,0,0,2.059,2.059H7.805a1,1,0,0,0,0-1.992H2.059a.067.067,0,0,1-.066-.066V63.679a.067.067,0,0,1,.066-.066H65.945a.067.067,0,0,1,.066.066v2.276a.067.067,0,0,1-.066.066H11.79a1,1,0,0,0,0,1.992H65.945A2.061,2.061,0,0,0,68,65.955V63.679A2.061,2.061,0,0,0,65.945,61.621ZM59.41,50.477v4.476a.067.067,0,0,1-.066.066H57V50.411h2.342A.067.067,0,0,1,59.41,50.477ZM39.61,61.621H19.6V59.279a2.061,2.061,0,0,0-2.059-2.059h-.142V46.01H50.608v2.408H43.866a2.061,2.061,0,0,0-2.059,2.059v4.476c0,.022,0,.044,0,.066h-.145a2.061,2.061,0,0,0-2.059,2.059v4.476c0,.022,0,.044,0,.066ZM28.6,30.607v.142a2.061,2.061,0,0,0,2.059,2.059H37.34A2.061,2.061,0,0,0,39.4,30.749v-.142h11.21v9.01H17.395v-9.01Zm8.735-8.594H37.2V10.562L52.956,24.214H39.4v-.142A2.061,2.061,0,0,0,37.34,22.014Zm0,1.992a.067.067,0,0,1,.066.066v6.676a.067.067,0,0,1-.066.066H30.664a.067.067,0,0,1-.066-.066V24.072a.067.067,0,0,1,.066-.066Zm-6.676-1.992A2.061,2.061,0,0,0,28.6,24.072v.142H15.049L30.805,10.562V22.014ZM55.009,55.019H48.2V50.41h6.809ZM17.395,41.609H50.608v2.408H17.395ZM43.8,54.953V50.477a.067.067,0,0,1,.066-.066h2.342v4.609H43.866A.066.066,0,0,1,43.8,54.953Zm13.41,2.059V61.62H46V57.012Zm-2.2-8.593H52.6V30.607h2.409ZM39.4,28.615V26.207H55.256l2.78,2.408ZM34.07,7.851l1.136.984V22.014H32.8V8.836l1.136-.984a.1.1,0,0,1,.136,0ZM12.75,26.206H28.6v2.408H9.97Zm.244,4.4H15.4V57.22H12.994Zm-2.2,31.013V59.279a.067.067,0,0,1,.066-.066h6.676a.067.067,0,0,1,.066.066v2.342ZM41.6,61.554V57.078a.067.067,0,0,1,.066-.066h2.342v4.609H41.665a.066.066,0,0,1-.066-.066Zm17.6.066V57.012h2.342a.067.067,0,0,1,.066.066v4.476a.067.067,0,0,1-.066.066Z" transform="translate(0 0)"/><path class="a" d="M247.427,200.78h.55a1,1,0,1,0,0-1.992h-.55a1,1,0,1,0,0,1.992Z" transform="translate(-213.7 -172.373)"/></g></svg>