<svg xmlns="http://www.w3.org/2000/svg" width="62.483" height="68.302" viewBox="0 0 62.483 68.302"><defs><style>.a{fill:#5565ba;}</style></defs><g transform="translate(-57.815 0)"><path class="a" d="M84.183,4.126a1.547,1.547,0,0,0-.837-.849L75.88.122a1.559,1.559,0,0,0-2.041.829l-.345.817h0a5.608,5.608,0,0,0,.448,5.212L67.063,24.15a1,1,0,1,0,1.857.744L75.463,8.561a5.592,5.592,0,0,0,2.021.875L65.339,39.753,63.311,38.9l4.275-10.668a1,1,0,0,0-1.857-.744L61.464,38.126a2.373,2.373,0,0,0-2.927,1.332l-.556,1.316-1.717-.726a2.994,2.994,0,0,0-3.918,1.591L48.558,50.6c-.069.163-.129.331-.184.5a11.643,11.643,0,0,0-8.452,7.606,7.964,7.964,0,0,0-3.444-.777,8.075,8.075,0,0,0-6.771,3.723A6.292,6.292,0,0,0,21.9,65.816a1.89,1.89,0,0,0,.288,1.7,1.945,1.945,0,0,0,1.56.789H43.187a1,1,0,1,0,0-2H23.847a4.287,4.287,0,0,1,5.883-2.5,1,1,0,0,0,1.327-.469,6.056,6.056,0,0,1,5.42-3.4,5.975,5.975,0,0,1,3.486,1.114,1,1,0,0,0,1.56-.611,9.576,9.576,0,0,1,18.619-.53,1,1,0,0,0,1.407.639,6.02,6.02,0,0,1,8.195,3.076,1,1,0,0,0,1.463.454A4.285,4.285,0,0,1,77.58,66.3H47.188a1,1,0,0,0,0,2H77.677a1.945,1.945,0,0,0,1.56-.789,1.89,1.89,0,0,0,.288-1.7A6.287,6.287,0,0,0,71.1,61.879a8,8,0,0,0-4.264-3.5l3.807-9.01a2.994,2.994,0,0,0-1.591-3.918l-1.717-.726.556-1.316a2.37,2.37,0,0,0-.741-2.806L79.624,9.474a5.608,5.608,0,0,0,4.205-3.338l.345-.817a1.547,1.547,0,0,0,.008-1.192ZM68.8,48.592,64.98,57.639c-.046.109-.1.215-.153.321-.21-.016-.421-.026-.634-.026a7.962,7.962,0,0,0-2.463.386,11.592,11.592,0,0,0-10.835-7.5c-.087,0-.173,0-.259.005l3.553-8.409a.989.989,0,0,1,1.3-.526l12.79,5.4A.99.99,0,0,1,68.8,48.592Zm-8.422-8.355a.375.375,0,0,1,.492-.2l4.979,2.1a.375.375,0,0,1,.2.492l-.556,1.316-5.671-2.4ZM81.987,5.356a3.61,3.61,0,1,1-6.65-2.81h0l.173-.409,6.65,2.81Z" transform="translate(36 0)"/></g></svg>