<svg xmlns="http://www.w3.org/2000/svg" xmlns:xlink="http://www.w3.org/1999/xlink" width="218.344" height="219.973" viewBox="0 0 218.344 219.973"><defs><style>.a{fill:#91b3fa;}.b{fill:#fff;opacity:0.57;}.c{fill:#7d97f4;}.d{fill:url(#a);}.e{fill:url(#b);}.f{fill:url(#c);}.g{fill:url(#d);}.h{fill:url(#e);}.i{fill:url(#f);}.j{fill:#9fa8da;}.k{fill:#ffe7a1;}.l{fill:#febd00;}.m{fill:url(#g);}.n{fill:url(#h);}.o{fill:url(#i);}.p{fill:url(#j);}.q{fill:url(#k);}.r{fill:url(#l);}.s{fill:url(#m);}.t{fill:url(#n);}.u{fill:url(#o);}.v{fill:url(#p);}.w{fill:url(#q);}.x{fill:url(#r);}.y{fill:url(#s);}.z{fill:url(#t);}.aa{fill:url(#u);}.ab{fill:url(#v);}.ac{fill:url(#w);}.ad{opacity:0.3;}.ae{fill:#bdd0fb;}</style><linearGradient id="a" x1="0.795" y1="-0.783" x2="0.434" y2="0.786" gradientUnits="objectBoundingBox"><stop offset="0" stop-color="#4042e2"/><stop offset="1" stop-color="#4f52ff"/></linearGradient><linearGradient id="b" x1="0" y1="0.5" x2="1" y2="0.5" xlink:href="#a"/><linearGradient id="c" x1="1.348" y1="-1.457" x2="4.592" y2="-8.942" gradientUnits="objectBoundingBox"><stop offset="0" stop-color="#09005d"/><stop offset="1" stop-color="#1a0f91"/></linearGradient><linearGradient id="d" x1="0.642" y1="-0.891" x2="-0.254" y2="7.822" gradientUnits="objectBoundingBox"><stop offset="0" stop-color="#febbba"/><stop offset="1" stop-color="#ff928e"/></linearGradient><linearGradient id="e" x1="0.576" y1="-0.265" x2="-0.473" y2="13.758" xlink:href="#d"/><linearGradient id="f" x1="1.188" y1="-0.291" x2="7.611" y2="-7.225" gradientUnits="objectBoundingBox"><stop offset="0" stop-color="#fe7062"/><stop offset="1" stop-color="#ff928e"/></linearGradient><linearGradient id="g" x1="2.252" y1="-0.791" x2="-2.568" y2="2.343" xlink:href="#a"/><linearGradient id="h" x1="1.22" y1="-0.107" x2="-1.203" y2="2.12" xlink:href="#a"/><linearGradient id="i" x1="-17.79" y1="1.219" x2="-17.399" y2="0.33" xlink:href="#d"/><linearGradient id="j" x1="1.313" y1="-4.693" x2="1.051" y2="-3.019" xlink:href="#a"/><linearGradient id="k" x1="0.887" y1="-2.921" x2="0.735" y2="-1.559" xlink:href="#a"/><linearGradient id="l" x1="-16.533" y1="0.277" x2="-18.792" y2="1.878" xlink:href="#d"/><linearGradient id="m" x1="-12.352" y1="0.152" x2="-11.602" y2="1.129" xlink:href="#c"/><linearGradient id="n" x1="-68.513" y1="-0.685" x2="-73.055" y2="1.781" xlink:href="#d"/><linearGradient id="o" x1="-114.277" y1="-0.444" x2="-102.309" y2="3.611" xlink:href="#d"/><linearGradient id="p" x1="-8.415" y1="-0.123" x2="-7.482" y2="1.014" xlink:href="#d"/><linearGradient id="q" x1="-70.057" y1="0.261" x2="-62.852" y2="2.697" xlink:href="#d"/><linearGradient id="r" x1="-0.777" y1="0.529" x2="-1.413" y2="2.467" gradientUnits="objectBoundingBox"><stop offset="0" stop-color="#e1473d"/><stop offset="1" stop-color="#e9605a"/></linearGradient><linearGradient id="s" x1="4.281" y1="-4.156" x2="3.694" y2="-2.497" xlink:href="#f"/><linearGradient id="t" x1="-2.365" y1="1.376" x2="-1.337" y2="3.787" gradientUnits="objectBoundingBox"><stop offset="0" stop-color="#ff9085"/><stop offset="1" stop-color="#fb6fbb"/></linearGradient><linearGradient id="u" x1="0.594" y1="0.278" x2="0.933" y2="-0.972" xlink:href="#f"/><linearGradient id="v" x1="1.69" y1="-1.805" x2="1.556" y2="-1.545" xlink:href="#f"/><linearGradient id="w" x1="-3.866" y1="15.575" x2="-4.67" y2="20.677" xlink:href="#d"/></defs><g transform="translate(-1.553)"><g transform="translate(1.553 0)"><g transform="translate(0 46.409)"><path class="a" d="M179.214,266.935c-4.741-14.888-13.921-26.755-24.789-33.731a44.23,44.23,0,0,1-19.311-27.167q-.4-1.772-.975-3.544c-5.7-17.908-21.349-28.911-34.944-24.583S79.2,200.265,84.909,218.173a43.826,43.826,0,0,0,4.645,10.044,44.353,44.353,0,0,1,6.2,32.288,65.086,65.086,0,0,0,2.109,32.344c5.3,16.648,16.148,29.522,28.705,36a43.651,43.651,0,0,1,12.581,9.727c5.9,6.619,14.2,9.727,21.832,7.3,8.237-2.624,13.374-10.956,13.746-20.691a46.466,46.466,0,0,1,3.615-16C183.321,297.146,184.01,281.989,179.214,266.935Z" transform="translate(-82.822 -176.968)"/><path class="b" d="M140.559,216.544c5.549,11.273,10.726,22.712,15.776,34.2,1.268,2.87,2.481,5.763,3.71,8.657l1.839,4.336,1.807,4.352c1.189,2.9,2.426,5.795,3.583,8.712l3.48,8.752c2.243,5.866,4.534,11.709,6.675,17.615,1.07,2.949,2.2,5.882,3.211,8.855l3.076,8.9c3.98,11.915,7.658,23.933,10.718,36.117l-.523.135-2.64-9.029-.658-2.259-.713-2.243-1.427-4.479-1.419-4.479c-.468-1.5-1-2.973-1.5-4.455-1.015-2.965-2.006-5.938-3.036-8.9-4.209-11.812-8.57-23.568-13.175-35.229-2.347-5.811-4.645-11.645-7.032-17.448l-1.776-4.352-1.815-4.336c-1.213-2.894-2.418-5.787-3.655-8.665q-3.639-8.669-7.412-17.3-3.734-8.633-7.587-17.218Z" transform="translate(-113.341 -198.067)"/></g><g transform="translate(46.93)"><path class="c" d="M272.481,184.347c-2.22-16.259-9.545-30.2-19.486-39.383a46.564,46.564,0,0,1-15.022-31.6c-.071-1.268-.19-2.553-.365-3.845-2.664-19.557-16.806-33.779-31.591-31.765s-24.607,19.5-21.935,39.058a46.417,46.417,0,0,0,2.981,11.233,46.752,46.752,0,0,1,.587,34.516,68.71,68.71,0,0,0-3.631,33.842c2.481,18.186,11.344,33.462,23.124,42.436a45.773,45.773,0,0,1,11.217,12.343c4.883,7.912,12.89,12.636,21.182,11.5,8.95-1.221,15.744-8.91,17.868-18.907A49.062,49.062,0,0,1,264,227.884C271.292,216.334,274.725,200.788,272.481,184.347Z" transform="translate(-183.342 -77.565)"/><path class="b" d="M248.436,121.033c3.694,12.66,6.976,25.431,10.123,38.234.785,3.2,1.522,6.413,2.275,9.624l1.118,4.82,1.078,4.828c.706,3.219,1.459,6.429,2.132,9.656l2.014,9.687c1.26,6.469,2.576,12.938,3.718,19.43.571,3.25,1.213,6.485,1.72,9.743l1.57,9.767c1.966,13.041,3.6,26.145,4.566,39.3l-.563.048-1.1-9.814-.27-2.458-.333-2.45-.674-4.891-.658-4.891c-.214-1.633-.5-3.258-.737-4.883-.515-3.25-1-6.508-1.53-9.759q-3.318-19.466-7.254-38.829c-1.379-6.437-2.7-12.89-4.122-19.319l-1.054-4.828-1.094-4.82c-.729-3.211-1.451-6.421-2.212-9.624q-2.2-9.632-4.534-19.232-2.295-9.608-4.725-19.184Z" transform="translate(-217.754 -100.739)"/></g></g><g transform="translate(74.711 40.533)"><path class="d" d="M370.368,342.4H241.342a1.824,1.824,0,0,1-1.823-1.823V166.206a1.824,1.824,0,0,1,1.823-1.823H370.376a1.824,1.824,0,0,1,1.823,1.823V340.569A1.832,1.832,0,0,1,370.368,342.4Z" transform="translate(-239.518 -164.382)"/><path class="c" d="M368.191,349.494H280.4a6.022,6.022,0,0,1-6.025-6.025V227.7a6.022,6.022,0,0,1,6.025-6.025h87.788a6.022,6.022,0,0,1,6.025,6.025V343.469A6.027,6.027,0,0,1,368.191,349.494Z" transform="translate(-258.103 -194.925)"/><path class="e" d="M373.569,352.6H292.5A1.807,1.807,0,0,1,290.7,350.8V246a1.807,1.807,0,0,1,1.807-1.807h81.066A1.807,1.807,0,0,1,375.376,246V350.8A1.807,1.807,0,0,1,373.569,352.6Z" transform="translate(-266.802 -206.929)"/><circle class="f" cx="3.972" cy="3.972" r="3.972" transform="translate(62.119 9.679)"/><path class="g" d="M369.646,330.869l-51.069.848a6.992,6.992,0,0,0-7.047,6.754v32.162a6.532,6.532,0,0,0,7.047,6.35l51.069-2.053a6.852,6.852,0,0,0,6.635-6.675V337.171A6.391,6.391,0,0,0,369.646,330.869Z" transform="translate(-277.91 -253.14)"/><path class="h" d="M381.59,286.524a2.713,2.713,0,0,1-2.806-2.664v-7.04a13.053,13.053,0,0,0-13.366-12.771l-16.64.048c-7.587.024-13.8,5.922-13.8,13.144v7.206a2.911,2.911,0,0,1-2.941,2.814,2.812,2.812,0,0,1-2.949-2.735V277.3c0-10.314,8.887-18.7,19.692-18.7h16.64c10.5,0,18.962,8.149,18.962,18.17v7.016A2.783,2.783,0,0,1,381.59,286.524Z" transform="translate(-287.27 -214.614)"/><path class="i" d="M383.916,362.033a6.284,6.284,0,0,0-6.913-6.12,6.745,6.745,0,0,0-6.31,6.12A6.061,6.061,0,0,0,374,367.764a2.229,2.229,0,0,1,1.15,2.4l-1.459,8.181a1.657,1.657,0,0,0,1.752,1.918l3.75-.135a1.791,1.791,0,0,0,1.744-2.037l-1.459-8.11a2.4,2.4,0,0,1,1.213-2.457A6.435,6.435,0,0,0,383.916,362.033Z" transform="translate(-309.446 -266.484)"/></g><g transform="translate(32.586 82.414)"><g transform="translate(0.398 66.082)"><path class="j" d="M168.605,538.324a.658.658,0,0,0-.024-.214c-1.062-4.2-6.318-6.81-6.318-6.81l-2.077.159c-1.2,3.7-1.046,5.969-.848,6.984.008.032.016.056.024.079A49.113,49.113,0,0,0,168.605,538.324Z" transform="translate(-154.973 -467.96)"/><path class="j" d="M159.526,546.543a.893.893,0,0,0,.658.666,28.5,28.5,0,0,0,7.959-.111.754.754,0,0,0,.626-.753A49.112,49.112,0,0,1,159.526,546.543Z" transform="translate(-155.145 -475.981)"/><path class="k" d="M159.509,525l.88,4.249a.688.688,0,0,0,.595.571,5.7,5.7,0,0,0,1.364-.024.873.873,0,0,0,.69-1.023l-.61-3.773Z" transform="translate(-155.136 -464.602)"/><path class="j" d="M193.975,545.98a12.381,12.381,0,0,1-4.106-.587c0,.23,0,.46.008.706a.456.456,0,0,0,.436.46l12.628-.079a.577.577,0,0,0,.468-.84C201.744,545.774,197.527,546.083,193.975,545.98Z" transform="translate(-171.322 -475.474)"/><path class="j" d="M203.4,538.85l-.048-.1a16.094,16.094,0,0,0-9.568-6.009l-2.7-.087a12.954,12.954,0,0,0-1.221,5.946,12.38,12.38,0,0,0,4.106.587C197.527,539.294,201.744,538.985,203.4,538.85Z" transform="translate(-171.322 -468.685)"/><path class="k" d="M191.16,523.216c.04.2.6,3.219.817,4.392a.6.6,0,0,0,.523.5,6.228,6.228,0,0,0,1.847-.143.794.794,0,0,0,.555-.832l-.3-4.78Z" transform="translate(-172.01 -463.19)"/><path class="l" d="M167.247,399.865s3.7,25.455,6.382,55.746a1.157,1.157,0,0,1-.951,1.173,14.09,14.09,0,0,1-3.012.349,1.117,1.117,0,0,1-1.062-.935c-.912-5.343-7.412-34-9.117-40.311,0,0-1.958,26.795-1.332,40.7a.653.653,0,0,1-.579.682,11,11,0,0,1-2.418-.008.876.876,0,0,1-.785-.745c-.65-4.519-4.384-31.424-4.225-50.807.008-1.094,1.284-10.076,1.284-10.076Z" transform="translate(-150.143 -395.631)"/></g><path class="m" d="M189.852,313.007l.5,13.318a36.148,36.148,0,0,0,4.027,1.142,40.718,40.718,0,0,1,4-8.078A19.734,19.734,0,0,1,189.852,313.007Z" transform="translate(-170.915 -285.5)"/><path class="n" d="M150.415,353.1a1.05,1.05,0,0,1-.69-.88c-.492-4.78-2.878-34.413,12.177-46.605,0,0,.864-2.259,7.959,3.3s3.3,11.376,1.6,19.406c-2.053,9.719-5.668,17.654-4.067,23.64a.819.819,0,0,1-.507.991A23.524,23.524,0,0,1,150.415,353.1Z" transform="translate(-149.291 -281.315)"/><path class="o" d="M182.03,287.113c-.008.42-6.017,8.966-6.017,8.966s1.078,2.125,6.231,3.853l4.447-9.148Z" transform="translate(-163.537 -271.695)"/><path class="p" d="M174.281,339.625a.182.182,0,0,1-.111-.032,21.93,21.93,0,0,1-7.087-8.538.2.2,0,0,1,.1-.254.189.189,0,0,1,.254.1,21.541,21.541,0,0,0,6.944,8.363.2.2,0,0,1,.055.27A.183.183,0,0,1,174.281,339.625Z" transform="translate(-158.769 -294.979)"/><path class="q" d="M183.488,321.753a.207.207,0,0,1-.166-.087c-.016-.024-1.482-2.307-4.281-7.309a5.613,5.613,0,0,0-3.361-2.894,6.527,6.527,0,0,0-4.471.595.2.2,0,0,1-.2-.341,6.825,6.825,0,0,1,4.764-.634,6.014,6.014,0,0,1,3.6,3.084c2.79,4.994,4.249,7.269,4.265,7.293a.2.2,0,0,1-.055.27A.334.334,0,0,1,183.488,321.753Z" transform="translate(-160.818 -284.368)"/><g transform="translate(10.799 5.164)"><path class="r" d="M189.237,276.636s2.14,4.915,2.283,7.491.7,4.257-2.283,4.772a6.341,6.341,0,0,1-6.857-3.536s-2.132-3.956-1.657-5.581S189.237,276.636,189.237,276.636Z" transform="translate(-176.81 -271.273)"/><path class="s" d="M179.013,277.393l.166-.071a.408.408,0,0,0,.2-.563c-.42-.817-1.237-2.672-.182-3.108,1.364-.563,6.77-1.665,7.935-3.583a3.57,3.57,0,0,0-1.364-4.9.206.206,0,0,0-.27.087l-.127.238a.2.2,0,0,1-.373-.04h0a.2.2,0,0,0-.365-.055c-.357.571-1.324,1.506-3.916,1.982-3.678.682-6.112,2.172-6.175,4.709a.2.2,0,0,1-.317.166c-.27-.166-.706-.246-1.284.246-1.007.848-.595,3.052,1.617,4.867a.2.2,0,0,1-.008.325c-.4.262-1,.88.555,1.712a5.282,5.282,0,0,0,3.266.713.205.205,0,0,0,.166-.246l-.491-2.236a.2.2,0,0,1,.2-.246Z" transform="translate(-172.421 -265.149)"/><path class="t" d="M183.652,289.636s-.817-3.139-2.228-2.259.729,3.52,1.863,3.639Z" transform="translate(-176.973 -276.916)"/></g><path class="u" d="M244.718,305.149a7.829,7.829,0,0,1-1.007-2.822c.071-.927-.507-2.283.1-2.18s.737.016.9,1.126S246.826,307.218,244.718,305.149Z" transform="translate(-199.533 -278.641)"/><path class="v" d="M221.467,304.4l-.024,3.8c-7.262,7.84-13.136,8.3-17.9,6.611a39.672,39.672,0,0,0-4,8.078c19.383,4.273,23.949-13.548,23.949-13.548,2.624-1.086,3.155-1.72,3.044-2.434Z" transform="translate(-176.084 -280.91)"/><path class="w" d="M254.575,294.086c-.618-.254-1.831-2.561-2.061-1.8s.1,1.8,0,2.125-1.609,4.043-1.308,4.867c.214.595,1.419.507,1.6,1.482a.622.622,0,0,0,1.237,0C254.068,300.634,255.194,294.34,254.575,294.086Z" transform="translate(-203.604 -274.371)"/><g transform="translate(29.069)"><path class="x" d="M213.67,267.056a19.643,19.643,0,0,0,31.638,22.53l33.636,17a1.808,1.808,0,0,0,1.76-.063l3.29-1.958a1.134,1.134,0,0,0,.159-.111.173.173,0,0,0,.04-.032c.04-.032.071-.063.111-.1.016-.008.024-.024.04-.032a1.018,1.018,0,0,0,.127-.135h0a1.828,1.828,0,0,0,.285-1.839l-2.672-6.7a1.826,1.826,0,0,0-.872-.951l-3.369-1.7-.888,1.76-2.894-1.467.888-1.76-2.711-1.371-.817,1.625-3.52-1.776.817-1.625-1.308-.666-.42.832-2.949-1.49.42-.832-2.291-1.157-.888,1.76-1.641-.824.888-1.76-1.419-.721-.888,1.76-2.838-1.435.888-1.76-4-2.021h0l-1.712-.864a19.639,19.639,0,0,0-36.894-12.121Zm11.455,1.34a3.976,3.976,0,1,1-5.343,1.752A3.978,3.978,0,0,1,225.125,268.4Z" transform="translate(-211.554 -255.253)"/><path class="y" d="M272.217,292.088l15.95,8.062-.888,1.76,2.838,1.435.888-1.76,1.419.721-.888,1.76,1.641.824.888-1.76,2.291,1.157-.42.832,2.949,1.49.42-.832,1.308.666-.817,1.625,3.52,1.776.817-1.625,2.711,1.371-.888,1.76,2.893,1.467.888-1.76,3.369,1.7a1.826,1.826,0,0,1,.872.951l2.672,6.7a1.837,1.837,0,0,1-.761,2.251l-3.29,1.958a1.85,1.85,0,0,1-1.76.063l-40.6-20.532Z" transform="translate(-242.838 -274.347)"/><path class="z" d="M223.625,291.294a19.641,19.641,0,1,0-8.665-26.39A19.644,19.644,0,0,0,223.625,291.294Zm-.793-17.956a3.976,3.976,0,1,1,5.343-1.752A3.978,3.978,0,0,1,222.832,273.338Z" transform="translate(-212.242 -254.107)"/><path class="aa" d="M246.607,287.415l33.636,17a1.807,1.807,0,0,0,1.76-.063l3.29-1.958a1.806,1.806,0,0,0,.872-1.332c-3.068-3.322-32.209-16.045-33.3-18.669-.388-.935-.452-2.346.706-4.534L251.862,277a19.619,19.619,0,1,0-5.256,10.417Zm-20.183-21.19a3.976,3.976,0,1,1-5.343,1.752A3.978,3.978,0,0,1,226.423,266.225Z" transform="translate(-212.242 -254.089)"/><path class="ab" d="M229.772,292.246a15.789,15.789,0,1,0-6.968-21.214A15.787,15.787,0,0,0,229.772,292.246Zm-2.537-14.515a3.976,3.976,0,1,1,5.343-1.752A3.978,3.978,0,0,1,227.235,277.731Z" transform="translate(-216.644 -258.5)"/></g><path class="ac" d="M182.517,340.2s18.495,6.191,28.848-1.689a2.9,2.9,0,0,1,2.251-.571l3.956.642a3.167,3.167,0,0,0,3.6-2.45,6.661,6.661,0,0,0,.1-2.846l-7.46-.452.214-.967s-3.3.809-3.361,3.385c0,0-7.737,5.066-21.848-2.8C188.8,332.466,183.3,336.771,182.517,340.2Z" transform="translate(-167.004 -295.557)"/></g><g transform="translate(129.481 1.08)"><g class="ad" transform="translate(11.491)"><path class="a" d="M436.687,113.115a.774.774,0,0,1-.745-.809c.032-.84.032-1.689-.008-2.529a.789.789,0,0,1,.729-.817h.016a.791.791,0,0,1,.817.745c.04.888.04,1.784.008,2.664a.774.774,0,0,1-.729.745Zm-1.213-7.428c-.151-.824-.341-1.657-.563-2.465a.781.781,0,0,1,1.506-.412c.23.848.428,1.72.587,2.592a.788.788,0,0,1-.626.912.386.386,0,0,1-.1.008A.766.766,0,0,1,435.474,105.687Zm-1.911-6.334c-.333-.769-.7-1.538-1.094-2.275a.779.779,0,0,1,1.371-.737c.42.777.809,1.585,1.157,2.4a.78.78,0,0,1-.412,1.023.771.771,0,0,1-1.023-.412ZM430.281,93.6c-.5-.682-1.023-1.34-1.578-1.974a.781.781,0,1,1,1.181-1.023c.579.666,1.142,1.364,1.665,2.077a.791.791,0,0,1-.166,1.094.818.818,0,0,1-.412.151A.807.807,0,0,1,430.281,93.6Zm-4.487-4.883c-.634-.547-1.3-1.078-1.974-1.578a.782.782,0,1,1,.927-1.26c.714.523,1.411,1.078,2.077,1.657a.783.783,0,0,1-.46,1.371A.771.771,0,0,1,425.794,88.715Zm-5.446-3.766c-.737-.4-1.506-.769-2.275-1.1a.778.778,0,1,1,.618-1.427c.809.349,1.617.737,2.394,1.157a.775.775,0,0,1,.317,1.054.769.769,0,0,1-1.054.317Zm-28.983-.365a.776.776,0,0,1,.325-1.054c.777-.412,1.585-.8,2.4-1.149a.78.78,0,1,1,.61,1.435q-1.165.5-2.283,1.094A.659.659,0,0,1,392.1,85,.764.764,0,0,1,391.365,84.585ZM414.2,82.492c-.809-.222-1.641-.412-2.465-.563a.782.782,0,0,1,.285-1.538c.872.159,1.744.365,2.592.595a.786.786,0,0,1,.547.959.767.767,0,0,1-.706.571A.707.707,0,0,1,414.2,82.492Zm-16.576-.571a.786.786,0,0,1,.547-.959c.856-.23,1.728-.428,2.6-.587a.777.777,0,0,1,.277,1.53c-.824.151-1.657.333-2.465.555a.549.549,0,0,1-.159.024A.759.759,0,0,1,397.62,81.921Zm10.036-.46c-.84-.04-1.689-.04-2.529,0a.791.791,0,0,1-.817-.745.776.776,0,0,1,.729-.809h.016c.88-.04,1.776-.04,2.664,0a.782.782,0,0,1,.016,1.562A.244.244,0,0,0,407.656,81.461Z" transform="translate(-386.684 -79.878)"/><path class="a" d="M382.281,94.647a.764.764,0,0,0,.436-.166c.317-.254.642-.5.967-.737a.782.782,0,1,0-.928-1.26c-.341.254-.69.515-1.015.777a.774.774,0,0,0-.127,1.094A.8.8,0,0,0,382.281,94.647Z" transform="translate(-381.444 -86.515)"/></g><g class="ad" transform="translate(0 26.231)"><path class="a" d="M357.924,138.86a.788.788,0,0,0,.729-.706c.04-.4.087-.809.143-1.2a.78.78,0,1,0-1.546-.214c-.055.42-.111.848-.151,1.268a.776.776,0,0,0,.706.848A.562.562,0,0,0,357.924,138.86Z" transform="translate(-356.973 -136.062)"/><path class="a" d="M388.4,178.332a.781.781,0,1,1-.024-1.562c.824-.008,1.657-.055,2.481-.143a.781.781,0,0,1,.159,1.554c-.357.032-.721.063-1.078.087C389.421,178.3,388.906,178.324,388.4,178.332Zm5.866-1.427a.77.77,0,0,1,.579-.935c.809-.19,1.609-.42,2.394-.674a.78.78,0,1,1,.484,1.482c-.824.27-1.673.507-2.521.713a.8.8,0,0,1-.935-.587Zm-10.115,1.2c-.864-.1-1.728-.254-2.584-.428a.782.782,0,0,1,.325-1.53c.809.166,1.633.309,2.45.412a.789.789,0,0,1,.682.872.778.778,0,0,1-.721.682A.909.909,0,0,1,384.15,178.1Zm16.481-3.282a.781.781,0,0,1,.357-1.046c.745-.365,1.475-.761,2.188-1.181a.78.78,0,0,1,.8,1.34c-.745.444-1.522.864-2.307,1.245a.77.77,0,0,1-.293.079A.781.781,0,0,1,400.631,174.82Zm-23.156,1.689c-.817-.293-1.633-.626-2.426-.991a.779.779,0,0,1,.642-1.419c.753.341,1.53.658,2.3.935a.782.782,0,0,1-.214,1.514A.589.589,0,0,1,377.475,176.509Zm-6.16-3.012c-.737-.468-1.459-.967-2.148-1.49a.781.781,0,0,1,.943-1.245c.658.5,1.348.975,2.045,1.419a.774.774,0,0,1,.238,1.078.788.788,0,0,1-.61.365A.775.775,0,0,1,371.315,173.5Zm-5.359-4.281c-.618-.618-1.213-1.26-1.776-1.926a.782.782,0,1,1,1.189-1.015c.531.626,1.1,1.245,1.689,1.831a.778.778,0,0,1,0,1.1.789.789,0,0,1-.5.23A.768.768,0,0,1,365.956,169.216Zm-4.3-5.351c-.468-.737-.9-1.5-1.308-2.267a.782.782,0,0,1,1.387-.721c.381.729.8,1.459,1.245,2.156a.781.781,0,0,1-.238,1.078.793.793,0,0,1-.365.119A.821.821,0,0,1,361.659,163.865Zm-3.012-6.168c-.293-.817-.555-1.657-.777-2.5a.779.779,0,0,1,1.506-.4c.214.8.46,1.6.737,2.378a.78.78,0,0,1-.476,1,1.038,1.038,0,0,1-.214.048A.82.82,0,0,1,358.647,157.7Zm-1.593-6.675c-.079-.634-.143-1.276-.182-1.918-.016-.23-.024-.46-.04-.69a.769.769,0,0,1,.745-.809.779.779,0,0,1,.809.745c.008.222.024.436.032.658.04.6.1,1.221.174,1.823a.783.783,0,0,1-.674.872.1.1,0,0,0-.048.008A.8.8,0,0,1,357.054,151.022Z" transform="translate(-356.831 -142.216)"/><path class="a" d="M463.427,196.429a.744.744,0,0,0,.436-.166c.333-.262.658-.539.983-.824a.781.781,0,0,0-1.031-1.173c-.309.27-.618.531-.935.777a.782.782,0,0,0,.547,1.387Z" transform="translate(-413.214 -166.988)"/></g><g transform="translate(7.62 7.419)"><path class="a" d="M417.22,130.728a.37.37,0,0,0,0-.42l-2.568-3.623a19.12,19.12,0,0,0,1.419-6.1l3.9-2.117a.356.356,0,0,0,.182-.381l-.872-5.256a.362.362,0,0,0-.3-.3l-4.376-.737a19.434,19.434,0,0,0-3.314-5.319l1.268-4.257a.365.365,0,0,0-.135-.4l-4.328-3.1a.37.37,0,0,0-.42,0l-3.623,2.568a19.119,19.119,0,0,0-6.1-1.419l-2.117-3.9a.356.356,0,0,0-.38-.182l-5.256.872a.362.362,0,0,0-.3.3l-.737,4.376a19.434,19.434,0,0,0-5.319,3.314l-4.257-1.268a.365.365,0,0,0-.4.135l-3.1,4.328a.37.37,0,0,0,0,.42l2.568,3.623a19.12,19.12,0,0,0-1.419,6.1l-3.884,2.125a.356.356,0,0,0-.182.381l.872,5.256a.362.362,0,0,0,.3.3l4.376.737a19.435,19.435,0,0,0,3.314,5.319l-1.268,4.257a.365.365,0,0,0,.135.4l4.328,3.1a.37.37,0,0,0,.42,0l3.623-2.568a19.119,19.119,0,0,0,6.1,1.419l2.117,3.9a.356.356,0,0,0,.381.182l5.256-.872a.362.362,0,0,0,.3-.3l.737-4.376a19.434,19.434,0,0,0,5.319-3.314l4.257,1.268a.365.365,0,0,0,.4-.135Z" transform="translate(-373.152 -95.769)"/><g transform="translate(18.15 18.158)"><path class="ae" d="M416.938,145.35a5.36,5.36,0,0,1-4.891-5.779,5.364,5.364,0,0,1,5.779-4.891,5.354,5.354,0,0,1-.1,10.678A5.187,5.187,0,0,1,416.938,145.35Zm-2.212-8.466a4.032,4.032,0,0,0-1.435,2.79,4.1,4.1,0,1,0,4.431-3.75,5.234,5.234,0,0,0-.61-.008A4.181,4.181,0,0,0,414.726,136.884Z" transform="translate(-412.028 -134.661)"/></g><g transform="translate(10.247 10.292)"><path class="ae" d="M409.078,144.105c.444-.032.9-.079,1.348-.151h0c.143-.024.285-.048.42-.079a13.763,13.763,0,0,0,2.029-.571c.008,0,.016-.008.024-.008a.548.548,0,0,0,.079-.032c.048-.016.1-.04.151-.055a.31.31,0,0,0,.2-.309.211.211,0,0,0-.024-.1.313.313,0,0,0-.4-.174,12.912,12.912,0,0,1-2.576.713,12.547,12.547,0,0,1-14.42-10.322c-.071-.428-.119-.856-.151-1.284a12.538,12.538,0,0,1,24.884-2.814,11.291,11.291,0,0,1,.143,1.268,12.438,12.438,0,0,1-.84,5.375.4.4,0,0,0-.024.135.308.308,0,0,0,.2.27.313.313,0,0,0,.4-.174,13.2,13.2,0,0,0,.888-5.644c-.032-.444-.079-.888-.151-1.332a13.166,13.166,0,0,0-26.129,2.965c.032.444.079.9.151,1.348a13.077,13.077,0,0,0,5.327,8.554A13.215,13.215,0,0,0,409.078,144.105Z" transform="translate(-395.099 -117.813)"/></g></g><g transform="translate(51.542 26.293)"><g class="ad" transform="translate(12.736)"><path class="a" d="M547.867,188.961a.48.48,0,0,0,.436-.373c.087-.4.166-.809.238-1.213a.489.489,0,0,0-.4-.555.483.483,0,0,0-.555.4c-.063.388-.135.777-.222,1.157a.487.487,0,0,0,.365.579A.814.814,0,0,0,547.867,188.961Z" transform="translate(-522.684 -163.181)"/><path class="a" d="M520.129,158.3a.474.474,0,0,1-.46-.5c.024-.674.016-1.356-.024-2.021-.008-.143-.016-.285-.032-.428a.486.486,0,0,1,.436-.523.5.5,0,0,1,.523.444c.016.151.024.293.032.444a18.875,18.875,0,0,1,.024,2.117.481.481,0,0,1-.452.46A.1.1,0,0,1,520.129,158.3Zm-.88-5.367a20,20,0,0,0-.65-2.362.481.481,0,0,1,.912-.309,20.788,20.788,0,0,1,.682,2.473.48.48,0,0,1-.373.571.22.22,0,0,1-.071.008A.485.485,0,0,1,519.249,152.93Zm-1.578-4.622a20.163,20.163,0,0,0-1.2-2.132.482.482,0,0,1,.809-.523,20.013,20.013,0,0,1,1.268,2.236.477.477,0,0,1-.222.642.368.368,0,0,1-.182.048A.5.5,0,0,1,517.671,148.309ZM515,144.21a19.775,19.775,0,0,0-1.689-1.768.482.482,0,1,1,.658-.706,21.82,21.82,0,0,1,1.776,1.855.487.487,0,0,1-.055.682.471.471,0,0,1-.277.111A.485.485,0,0,1,515,144.21Zm-3.591-3.314a20.691,20.691,0,0,0-2.069-1.308.484.484,0,0,1,.468-.848,23.733,23.733,0,0,1,2.172,1.364.481.481,0,0,1-.254.872A.456.456,0,0,1,511.409,140.9Zm-4.281-2.347a19.877,19.877,0,0,0-2.323-.761.483.483,0,0,1,.238-.935,20.917,20.917,0,0,1,2.442.8.486.486,0,0,1,.27.626.47.47,0,0,1-.42.3A.485.485,0,0,1,507.128,138.55Zm-4.725-1.229a20.815,20.815,0,0,0-2.442-.166.474.474,0,0,1-.476-.484.479.479,0,0,1,.484-.476,21.153,21.153,0,0,1,2.561.174.476.476,0,0,1,.412.539.489.489,0,0,1-.444.42A.386.386,0,0,1,502.4,137.321Zm-7.88.048a.472.472,0,0,1,.357-.579,22.183,22.183,0,0,1,2.188-.412c.111-.016.222-.032.333-.04a.47.47,0,0,1,.531.42.476.476,0,0,1-.42.531c-.1.008-.206.024-.317.04a20.293,20.293,0,0,0-2.093.388c-.032.008-.055.008-.087.016A.477.477,0,0,1,494.523,137.369Z" transform="translate(-494.509 -136.196)"/></g><g class="ad" transform="translate(0 30.598)"><path class="a" d="M486.306,212.746a22.273,22.273,0,0,1-2.521-.024.481.481,0,1,1,.071-.959,20.355,20.355,0,0,0,2.41.024.481.481,0,0,1,.507.46.5.5,0,0,1-.468.5Zm1.95-.666a.479.479,0,0,1,.4-.555,19.757,19.757,0,0,0,2.347-.547.493.493,0,0,1,.6.325.486.486,0,0,1-.325.6,21.691,21.691,0,0,1-2.458.579c-.016,0-.032.008-.055.008A.51.51,0,0,1,488.256,212.081Zm-6.976.309a19.711,19.711,0,0,1-2.442-.634.484.484,0,1,1,.3-.92,19.715,19.715,0,0,0,2.331.6.48.48,0,0,1-.063.951A.229.229,0,0,1,481.28,212.39Zm11.733-1.609a.487.487,0,0,1,.246-.634,19.471,19.471,0,0,0,2.14-1.1.48.48,0,1,1,.491.824,21.4,21.4,0,0,1-2.243,1.157.426.426,0,0,1-.166.04A.476.476,0,0,1,493.013,210.78Zm-16.521.048a21.427,21.427,0,0,1-2.22-1.2.485.485,0,0,1-.151-.666.478.478,0,0,1,.666-.151,20.957,20.957,0,0,0,2.117,1.149.484.484,0,0,1-.174.92A.4.4,0,0,1,476.492,210.828Zm-4.281-2.664a21.123,21.123,0,0,1-1.863-1.7.482.482,0,1,1,.69-.674,19.194,19.194,0,0,0,1.784,1.617.487.487,0,0,1,.071.682.506.506,0,0,1-.349.182A.5.5,0,0,1,472.211,208.164Zm-3.512-3.607a19.771,19.771,0,0,1-1.4-2.1.481.481,0,0,1,.832-.484,19.948,19.948,0,0,0,1.34,2,.48.48,0,0,1-.1.674.409.409,0,0,1-.262.1A.48.48,0,0,1,468.7,204.557Z" transform="translate(-467.23 -201.733)"/><path class="a" d="M531.98,214.326a.469.469,0,0,0,.262-.1c.325-.254.65-.515.951-.785a.483.483,0,0,0-.634-.729c-.293.254-.595.507-.912.745a.481.481,0,0,0-.087.674A.489.489,0,0,0,531.98,214.326Z" transform="translate(-501.473 -207.522)"/></g><g transform="translate(2.282 4.928)"><path class="a" d="M501.62,170.14a.238.238,0,0,0,0-.285l-1.72-2.426a12.9,12.9,0,0,0,.951-4.083l2.608-1.411a.239.239,0,0,0,.127-.254L503,158.169a.236.236,0,0,0-.2-.2l-2.925-.5a12.871,12.871,0,0,0-2.22-3.559l.848-2.846a.241.241,0,0,0-.1-.27l-2.9-2.077a.238.238,0,0,0-.285,0l-2.426,1.72a12.9,12.9,0,0,0-4.083-.951l-1.411-2.608a.239.239,0,0,0-.254-.127l-3.512.587a.235.235,0,0,0-.2.2l-.5,2.925a12.87,12.87,0,0,0-3.559,2.22l-2.846-.848a.241.241,0,0,0-.27.1l-2.077,2.9a.238.238,0,0,0,0,.285l1.72,2.426a12.9,12.9,0,0,0-.951,4.083l-2.608,1.411a.239.239,0,0,0-.127.254l.587,3.512a.235.235,0,0,0,.2.2l2.925.5a12.871,12.871,0,0,0,2.22,3.559l-.848,2.846a.241.241,0,0,0,.1.27l2.9,2.077a.238.238,0,0,0,.285,0l2.426-1.72a12.9,12.9,0,0,0,4.083.951l1.411,2.608a.239.239,0,0,0,.254.127l3.512-.587a.235.235,0,0,0,.2-.2l.5-2.925a12.87,12.87,0,0,0,3.559-2.22l2.846.848a.241.241,0,0,0,.27-.1Z" transform="translate(-472.119 -146.751)"/><g transform="translate(12.096 12.095)"><path class="ae" d="M501.369,179.932a3.644,3.644,0,1,1,.61-7.262,3.647,3.647,0,0,1,3.33,3.932,3.645,3.645,0,0,1-3.393,3.337C501.734,179.948,501.552,179.94,501.369,179.932ZM499,176.072a2.7,2.7,0,0,0,.626,1.958,2.675,2.675,0,0,0,1.823.943h0a2.7,2.7,0,0,0,1.958-.626,2.678,2.678,0,0,0-1.506-4.717,2.2,2.2,0,0,0-.4,0A2.666,2.666,0,0,0,499,176.072Z" transform="translate(-498.027 -172.658)"/></g><g transform="translate(6.588 6.598)"><path class="ae" d="M495.9,179.029c.3-.016.61-.055.92-.1a9.122,9.122,0,0,0,1.784-.484c.024-.008.055-.024.079-.032a.478.478,0,0,0,.3-.476.513.513,0,0,0-.032-.151.486.486,0,0,0-.626-.27,8.1,8.1,0,0,1-1.665.46h0c-.032.008-.063.008-.1.016a7.958,7.958,0,0,1-3.956-.373,8.229,8.229,0,0,1-1.942-1.007c-.008,0-.008-.008-.016-.008s-.032-.024-.048-.032a8.041,8.041,0,0,1-3.282-5.272,7.433,7.433,0,0,1-.1-.832,8.113,8.113,0,0,1,16.1-1.831,7.165,7.165,0,0,1,.1.817,8.133,8.133,0,0,1-.547,3.48.468.468,0,0,0-.032.206.481.481,0,0,0,.928.151,8.951,8.951,0,0,0,.61-3.892,9.083,9.083,0,0,0-18.13,1.134,9.218,9.218,0,0,0,.1.928A9.118,9.118,0,0,0,495.9,179.029Z" transform="translate(-486.229 -160.882)"/></g></g></g></g></g></svg>