<svg xmlns="http://www.w3.org/2000/svg" width="216.2" height="336.8" viewBox="0 0 216.2 336.8"><defs><style>.a{opacity:0.1;}.b{fill:#9fa8da;}.c{fill:#fff;}.d{fill:#b3b3b3;}.e{fill:#d6d6d6;}.f{fill:#ccc;}.g{fill:none;stroke:#001970;stroke-linecap:round;stroke-linejoin:round;stroke-miterlimit:10;stroke-width:5.792px;}.h{fill:gray;font-size:13.72px;font-family:Montserrat-Bold, Montserrat;font-weight:700;}</style></defs><g transform="translate(-141.9 -71.7)"><path class="a" d="M344.5,408.5h-189a13.614,13.614,0,0,1-13.6-13.6V115.2a13.614,13.614,0,0,1,13.6-13.6h189a13.614,13.614,0,0,1,13.6,13.6V395A13.659,13.659,0,0,1,344.5,408.5Z"/><path class="b" d="M344.5,402.6h-189A13.614,13.614,0,0,1,141.9,389V109.2a13.614,13.614,0,0,1,13.6-13.6h189a13.614,13.614,0,0,1,13.6,13.6V389A13.679,13.679,0,0,1,344.5,402.6Z"/><rect class="c" width="191" height="284.7" transform="translate(154.5 106.8)"/><rect class="d" width="116" height="9.6" transform="translate(210.5 158)"/><rect class="e" width="116" height="9.6" transform="translate(210.5 175.4)"/><rect class="e" width="154" height="9.6" transform="translate(172.5 192.9)"/><path class="e" d="M210.6,106.8a4.887,4.887,0,0,0,4.9,4.8h69a4.888,4.888,0,0,0,4.9-4.8Z"/><path class="e" d="M284.5,82.4H260.7a10.7,10.7,0,0,0-21.4,0H215.5a4.908,4.908,0,0,0-4.9,4.9V104a4.908,4.908,0,0,0,4.9,4.9h69a4.908,4.908,0,0,0,4.9-4.9V87.3A4.908,4.908,0,0,0,284.5,82.4ZM250,86.6a4.2,4.2,0,1,1,4.2-4.2A4.225,4.225,0,0,1,250,86.6Z"/><path class="f" d="M210.6,99.6V104a4.908,4.908,0,0,0,4.9,4.9h69a4.908,4.908,0,0,0,4.9-4.9V99.6Z"/><path class="e" d="M196.8,163v17.1H177.5V163h19.3m5-5H172.5v27.1h29.3V158Z"/><rect class="d" width="116" height="9.6" transform="translate(210.5 218.6)"/><rect class="e" width="116" height="9.6" transform="translate(210.5 236.1)"/><rect class="e" width="154" height="9.6" transform="translate(172.5 253.5)"/><rect class="e" width="68.5" height="9.6" transform="translate(172.5 329.3)"/><rect class="e" width="37.5" height="9.6" transform="translate(172.5 346.1)"/><rect class="e" width="68.5" height="9.6" transform="translate(258.3 329.3)"/><rect class="e" width="37.5" height="9.6" transform="translate(258.3 346.1)"/><path class="e" d="M196.8,223.6v17.1H177.5V223.6h19.3m5-5H172.5v27.1h29.3V218.6Z"/><rect class="d" width="154" height="9.4" transform="translate(172.5 279.3)"/><path class="e" d="M236.2,300.4v17.1H177.5V300.4h58.7m5-5H172.5v27.1h68.7V295.4Z"/><path class="e" d="M321.5,300.4v17.1H262.8V300.4h58.7m5-5H257.8v27.1h68.7V295.4Z"/><path class="g" d="M204.4,159l-17.3,17.2-9-9"/><path class="g" d="M204.4,218.6l-17.3,17.3-9-9"/><text class="h" transform="translate(171.981 140.542)"><tspan x="0" y="0">REGISTRATION FORM</tspan></text></g></svg>